# xmcd
#
# Track frame offsets: 
#        150
#        10650
#        28050
#        42450
#        51038
#
# Disc length: 922 seconds
#
# Revision: 0
# Processed by: cddbd v1.5.2PL0 Copyright (c) Steve Scherf et al.
# Submitted via: ExactAudioCopy v0.99pb4
#
DISCID=36039805
DTITLE=Heather Stewart - Heather Stewart Trio
DYEAR=2008
DGENRE=Blues
TTITLE0=01 Sitting On Top Of The World
TTITLE1=02 Evil Gal Blues
TTITLE2=03 Travellin' Railroad Man Blues
TTITLE3=04 Take Your Finger Off It
TTITLE4=05 Special River Blues
EXTD=
EXTT0=
EXTT1=
EXTT2=
EXTT3=
EXTT4=
PLAYORDER=
